<svg width="32" height="32" fill="none" xmlns="http://www.w3.org/2000/svg">
  <g clip-path="url(#a)">
    <path d="M19.84.47C11.266-1.645 2.595 3.579.47 12.16c-2.126 8.573 3.106 17.245 11.68 19.37s17.253-3.107 19.37-11.689C33.639 11.26 28.423 2.596 19.84.471Z" fill="#fff"/>
    <path d="m16.112 7.753-1.437 2.68c-.163.291-.455.264-.747.101l-1.04-.538.775 4.116c.163.752-.36.752-.618.427l-1.816-2.033-.294 1.033c-.035.135-.184.277-.408.244L8.23 13.3l.603 2.192c.13.488.23.69-.13.818l-.818.385 3.951 3.21c.157.121.236.34.18.537l-.346 1.135c1.36-.157 2.58-.393 3.941-.538.12-.013.322.186.32.325l-.18 4.158h.662l-.104-4.15c0-.139.182-.346.302-.333 1.361.145 2.58.381 3.941.538l-.346-1.135a.517.517 0 0 1 .18-.537l3.952-3.21-.819-.385c-.36-.128-.259-.33-.13-.818l.603-2.192-2.295.482c-.225.034-.374-.108-.408-.243l-.295-1.033-1.815 2.033c-.258.325-.782.325-.619-.427l.776-4.116-1.04.538c-.293.163-.585.19-.748-.101M.47 12.16c-1.49 6.013.638 12.073 5 15.89V3.958a15.928 15.928 0 0 0-5 8.202ZM31.521 19.841A16 16 0 0 0 26.53 3.954v24.087a15.91 15.91 0 0 0 4.991-8.2Z" fill="red"/>
  </g>
  <defs>
    <clipPath id="a">
      <path fill="#fff" d="M0 0h32v32H0z"/>
    </clipPath>
  </defs>
</svg>
