<svg width="24" height="24" fill="none" xmlns="http://www.w3.org/2000/svg">
  <path d="M2.046 10.455v-.005c-.11-1.037-.11-2.387.774-3.374.76-.844 2.075-1.314 4.178-1.314h10c2.113 0 3.428.48 4.178 1.314.885.987.884 2.336.775 3.384v.005l-.75 7.987c-.106 1.01-.358 1.928-1.052 2.604-.69.674-1.91 1.196-4.15 1.196h-8c-2.241 0-3.461-.522-4.152-1.195-.693-.675-.945-1.59-1.051-2.595l-.75-8.007Zm1.244 7.953.001.007c.086.8.247 1.695.977 2.355.72.652 1.887.982 3.73.982h8c1.839 0 3.006-.33 3.727-.983.73-.662.894-1.558.98-2.364l.001-.007.75-7.985v-.002c.134-1.289-.01-2.302-.646-3.004-.743-.83-2.1-1.155-3.812-1.155h-10c-1.712 0-3.068.325-3.811 1.155-.636.701-.78 1.714-.646 2.994l.75 8.007Z" stroke="#fff"/>
  <path d="M16 6.25a.256.256 0 0 1-.25-.25V5.176c0-.426 0-.827-.042-1.17-.043-.355-.137-.71-.371-1.007-.24-.306-.579-.491-.993-.6-.406-.107-.916-.149-1.544-.149h-1.6c-.628 0-1.137.042-1.544.149-.414.109-.753.294-.993.6-.234.298-.328.652-.371 1.007-.042.343-.042.744-.042 1.17V6c0 .134-.116.25-.25.25A.256.256 0 0 1 7.75 6v-.8c0-.915.014-1.743.414-2.364C8.528 2.27 9.31 1.75 11.2 1.75h1.6c1.89 0 2.672.52 3.036 1.086.4.621.414 1.45.414 2.364V6c0 .134-.116.25-.25.25ZM10.75 12.25h-.5V14.054c0 .237 0 .468.023.66.024.203.082.444.26.644.18.204.42.293.65.337.226.044.5.055.817.055.314 0 .588-.01.811-.05.227-.04.47-.125.655-.33.18-.2.237-.444.261-.648.023-.195.023-.43.023-.678V12.25H10.75Zm1.25 4c-1.269 0-1.76-.385-1.982-.742-.256-.412-.268-.944-.268-1.478V13c0-.712.099-.95.2-1.05.1-.101.338-.2 1.05-.2h2c.712 0 .95.099 1.05.2.101.1.2.338.2 1.05v1c0 .545-.012 1.085-.27 1.503-.222.36-.712.747-1.98.747Z" stroke="#fff"/>
  <path d="m13.757 14.056-.001-.008a.253.253 0 0 1 .214-.283h.002a16.276 16.276 0 0 0 7.532-2.972l.007-.006c.094-.07.25-.062.345.066a.254.254 0 0 1-.062.352 16.864 16.864 0 0 1-7.737 3.063H14a.246.246 0 0 1-.243-.212ZM2.473 11.478l-.002-.001a.253.253 0 0 1-.066-.346.253.253 0 0 1 .345-.066 16.253 16.253 0 0 0 7.262 2.722.251.251 0 0 1 .222.273v.01l-.002.011c-.008.106-.098.2-.231.2H9.94a16.655 16.655 0 0 1-7.467-2.803Z" stroke="#fff"/>
</svg>
