<svg width="24" height="24" viewBox="0 0 24 24" fill="none" xmlns="http://www.w3.org/2000/svg">
<g clip-path="url(#clip0_63_2205)">
<path fill-rule="evenodd" clip-rule="evenodd" d="M2.29994 5.69498C2.31269 3.79566 3.84478 2.26001 5.74994 2.26001H18.2899C20.1941 2.26001 21.7399 3.80579 21.7399 5.71001V14.49C21.7399 16.3942 20.1941 17.94 18.2899 17.94H15.0131L11.6351 21.5151C11.3506 21.8162 10.8759 21.8296 10.5749 21.5452C10.2738 21.2607 10.2603 20.786 10.5448 20.4849L14.1448 16.6749C14.2865 16.525 14.4837 16.44 14.6899 16.44H18.2899C19.3657 16.44 20.2399 15.5658 20.2399 14.49V5.71001C20.2399 4.63423 19.3657 3.76001 18.2899 3.76001H5.74994C4.67523 3.76001 3.80737 4.62416 3.79991 5.70467L3.74993 14.4843C3.7427 15.5688 4.61681 16.45 5.69995 16.45H9.28992C9.70413 16.45 10.0399 16.7858 10.0399 17.2C10.0399 17.6142 9.70413 17.95 9.28992 17.95H5.69995C3.78323 17.95 2.2374 16.3907 2.24995 14.4754" fill="#777575"/>
<path fill-rule="evenodd" clip-rule="evenodd" d="M7.35999 7.93005C7.35999 7.51584 7.69577 7.18005 8.10999 7.18005H15.87C16.2842 7.18005 16.62 7.51584 16.62 7.93005C16.62 8.34427 16.2842 8.68005 15.87 8.68005H8.10999C7.69577 8.68005 7.35999 8.34427 7.35999 7.93005Z" fill="#777575"/>
<path fill-rule="evenodd" clip-rule="evenodd" d="M7.35999 11.53C7.35999 11.1158 7.69577 10.78 8.10999 10.78H11.99C12.4042 10.78 12.74 11.1158 12.74 11.53C12.74 11.9442 12.4042 12.28 11.99 12.28H8.10999C7.69577 12.28 7.35999 11.9442 7.35999 11.53Z" fill="#777575"/>
</g>
<defs>
<clipPath id="clip0_63_2205">
<rect width="24" height="24" fill="white"/>
</clipPath>
</defs>
</svg>
