<svg width="29" height="36" fill="none" xmlns="http://www.w3.org/2000/svg">
  <path fill-rule="evenodd" clip-rule="evenodd" d="M11.459.5a6.939 6.939 0 0 1 5.176 0 6.81 6.81 0 0 1 2.204 1.43 6.631 6.631 0 0 1 1.482 2.155c.165.386.291.786.379 1.194h2.39c2.726 0 5.004 2.155 5.004 4.897v.265c0 1.614-.854 3.038-2.152 3.854a11.683 11.683 0 0 1 1.594 4.28l.068.422a14.676 14.676 0 0 1-.38 6.377l-.213.745c-1.339 4.676-5.316 8.16-10.19 8.99a16.518 16.518 0 0 1-5.55 0c-4.873-.83-8.85-4.314-10.188-8.99l-.213-.745a14.676 14.676 0 0 1-.38-6.377l.067-.423c.25-1.545.801-2.992 1.595-4.28C.853 13.48 0 12.056 0 10.442v-.265c0-2.742 2.278-4.897 5.003-4.897h2.391c.087-.408.214-.808.379-1.194A6.63 6.63 0 0 1 9.255 1.93 6.81 6.81 0 0 1 11.46.5Zm-1.237 4.779h7.65a3.912 3.912 0 0 0-.927-1.398 4.092 4.092 0 0 0-1.325-.859 4.22 4.22 0 0 0-3.147 0c-.498.2-.947.493-1.324.859a3.912 3.912 0 0 0-.927 1.398ZM5.003 7.998c-1.3 0-2.284 1.013-2.284 2.178v.265c0 .863.637 1.65 1.584 1.825a53.996 53.996 0 0 0 19.487 0c.948-.174 1.585-.962 1.585-1.825v-.265c0-1.165-.985-2.178-2.285-2.178H5.003Zm-.134 7.125a8.991 8.991 0 0 0-1.627 3.884l-.069.423a11.958 11.958 0 0 0 .31 5.196l.214.745c1.04 3.636 4.153 6.397 8.032 7.058 1.533.261 3.102.261 4.636 0 3.879-.661 6.991-3.422 8.032-7.058l.213-.745c.484-1.692.59-3.463.31-5.196l-.068-.423a8.99 8.99 0 0 0-1.627-3.884l-.214.035a56.717 56.717 0 0 1-18.142-.035Zm4.194 10.871v-7.038a1.36 1.36 0 1 1 2.718 0v7.038a1.36 1.36 0 1 1-2.719 0Zm8.609-8.398c.75 0 1.36.609 1.36 1.36v7.038a1.36 1.36 0 1 1-2.72 0v-7.038c0-.751.61-1.36 1.36-1.36Z" fill="#DE506F"/>
</svg>
