<svg width="32" height="32" viewBox="0 0 32 32" fill="none" xmlns="http://www.w3.org/2000/svg">
<g clip-path="url(#clip0_822_63644)">
<path fill-rule="evenodd" clip-rule="evenodd" d="M23.65 5.19743C22.3879 3.92508 20.3587 3.92508 19.0965 5.19743L6.83373 17.5269C6.53579 17.8355 6.36083 18.1995 6.31116 18.572L6.31012 18.5798L5.63777 23.3351L9.50662 22.7852V22.7643L10.3745 22.6486C10.7508 22.5984 11.099 22.4239 11.3651 22.1411L11.3745 22.1311L23.651 9.78798L23.6529 9.78606C24.9141 8.52481 24.9182 6.4758 23.65 5.19743ZM17.6773 3.78821C19.7219 1.72792 23.0257 1.72815 25.0699 3.7889C27.1081 5.84352 27.1125 9.15374 25.0681 11.1992C25.0678 11.1996 25.0674 11.1999 25.0671 11.2003L12.8113 23.5227C12.4387 23.9154 11.9926 24.2127 11.5066 24.4052V24.5211L5.48734 25.3765L5.4842 25.377C4.9817 25.4468 4.44952 25.3139 4.05882 24.9279C3.6659 24.5397 3.52642 24.0047 3.59563 23.4926L3.59645 23.4865L4.32927 18.3034C4.44014 17.4792 4.82366 16.7263 5.4024 16.13L5.41091 16.1213L17.6773 3.78821C17.6776 3.78798 17.6771 3.78844 17.6773 3.78821Z" fill="white"/>
<path fill-rule="evenodd" clip-rule="evenodd" d="M21.6777 7.23653C22.0697 7.62558 22.072 8.25874 21.683 8.65073L19.9097 10.4374C19.5207 10.8294 18.8875 10.8318 18.4955 10.4427C18.1035 10.0537 18.1011 9.42051 18.4902 9.02852L20.2635 7.24185C20.6525 6.84986 21.2857 6.84747 21.6777 7.23653Z" fill="white"/>
<path fill-rule="evenodd" clip-rule="evenodd" d="M17.1467 27.2529C17.1467 26.7006 17.5944 26.2529 18.1467 26.2529H25.9201C26.4724 26.2529 26.9201 26.7006 26.9201 27.2529C26.9201 27.8052 26.4724 28.2529 25.9201 28.2529H18.1467C17.5944 28.2529 17.1467 27.8052 17.1467 27.2529Z" fill="white"/>
</g>
<defs>
<clipPath id="clip0_822_63644">
<rect width="32" height="32" fill="white"/>
</clipPath>
</defs>
</svg>
