<svg width="24" height="24" viewBox="0 0 24 24" fill="none" xmlns="http://www.w3.org/2000/svg">
<g clip-path="url(#clip0_63_2271)">
<path fill-rule="evenodd" clip-rule="evenodd" d="M17.7375 3.89819C16.7909 2.94393 15.269 2.94393 14.3224 3.89819L5.1253 13.1453C4.90184 13.3767 4.77062 13.6497 4.73337 13.9291L4.73259 13.935L4.22833 17.5014L7.12997 17.089V17.0734L7.78084 16.9866C8.06311 16.9489 8.32423 16.818 8.52382 16.606L8.53091 16.5984L17.7382 7.3411L17.7397 7.33966C18.6856 6.39373 18.6886 4.85697 17.7375 3.89819ZM13.258 2.84128C14.7914 1.29606 17.2692 1.29623 18.8024 2.8418C20.3311 4.38276 20.3344 6.86543 18.8011 8.39955C18.8008 8.39981 18.8006 8.40007 18.8003 8.40033L9.60846 17.6421C9.32902 17.9366 8.99446 18.1596 8.62997 18.304V18.3909L4.1155 19.0325L4.11315 19.0329C3.73627 19.0852 3.33714 18.9855 3.04412 18.696C2.74942 18.4049 2.64482 18.0036 2.69672 17.6196L2.69734 17.615L3.24696 13.7277C3.3301 13.1095 3.61775 12.5448 4.0518 12.0976L4.05818 12.0911L13.258 2.84128C13.2582 2.8411 13.2578 2.84145 13.258 2.84128Z" fill="#141519"/>
<path fill-rule="evenodd" clip-rule="evenodd" d="M16.2583 5.42764C16.5523 5.71943 16.5541 6.1943 16.2623 6.48829L14.9323 7.8283C14.6406 8.12229 14.1657 8.12408 13.8717 7.83229C13.5777 7.5405 13.5759 7.06563 13.8677 6.77163L15.1977 5.43163C15.4894 5.13764 15.9643 5.13585 16.2583 5.42764Z" fill="#141519"/>
<path fill-rule="evenodd" clip-rule="evenodd" d="M12.86 20.4399C12.86 20.0257 13.1958 19.6899 13.61 19.6899H19.44C19.8542 19.6899 20.19 20.0257 20.19 20.4399C20.19 20.8542 19.8542 21.1899 19.44 21.1899H13.61C13.1958 21.1899 12.86 20.8542 12.86 20.4399Z" fill="#141519"/>
</g>
<defs>
<clipPath id="clip0_63_2271">
<rect width="24" height="24" fill="white"/>
</clipPath>
</defs>
</svg>
