<svg width="24" height="24" viewBox="0 0 24 24" fill="none" xmlns="http://www.w3.org/2000/svg">
<g clip-path="url(#clip0_830_131406)">
<path fill-rule="evenodd" clip-rule="evenodd" d="M17.7376 3.89831C16.791 2.94405 15.2691 2.94405 14.3225 3.89831L5.12542 13.1454C4.90197 13.3768 4.77075 13.6499 4.7335 13.9292L4.73271 13.9351L4.22845 17.5015L7.13009 17.0892V17.0735L7.78097 16.9867C8.06324 16.9491 8.32435 16.8182 8.52394 16.6061L8.53103 16.5986L17.7383 7.34123L17.7398 7.33979C18.6857 6.39385 18.6888 4.85709 17.7376 3.89831ZM13.2581 2.8414C14.7915 1.29618 17.2694 1.29636 18.8026 2.84192C20.3312 4.38288 20.3345 6.86555 18.8012 8.39968C18.8009 8.39993 18.8007 8.40019 18.8004 8.40045L9.60858 17.6422C9.32914 17.9368 8.99459 18.1597 8.63009 18.3041V18.3911L4.11562 19.0327L4.11327 19.033C3.73639 19.0853 3.33726 18.9856 3.04424 18.6962C2.74954 18.405 2.64494 18.0038 2.69684 17.6197L2.69746 17.6151L3.24708 13.7278C3.33023 13.1096 3.61787 12.545 4.05193 12.0978L4.0583 12.0912L13.2581 2.8414C13.2583 2.84123 13.258 2.84157 13.2581 2.8414Z" fill="#6D6B6B"/>
<path fill-rule="evenodd" clip-rule="evenodd" d="M16.2582 5.42764C16.5522 5.71943 16.554 6.1943 16.2622 6.48829L14.9322 7.8283C14.6404 8.12229 14.1656 8.12408 13.8716 7.83229C13.5776 7.5405 13.5758 7.06563 13.8676 6.77163L15.1975 5.43163C15.4893 5.13764 15.9642 5.13585 16.2582 5.42764Z" fill="#6D6B6B"/>
<path fill-rule="evenodd" clip-rule="evenodd" d="M12.8599 20.4404C12.8599 20.0262 13.1956 19.6904 13.6099 19.6904H19.4399C19.8541 19.6904 20.1899 20.0262 20.1899 20.4404C20.1899 20.8546 19.8541 21.1904 19.4399 21.1904H13.6099C13.1956 21.1904 12.8599 20.8546 12.8599 20.4404Z" fill="#6D6B6B"/>
</g>
<defs>
<clipPath id="clip0_830_131406">
<rect width="24" height="24" fill="white"/>
</clipPath>
</defs>
</svg>
