<svg width="16" height="13" viewBox="0 0 16 13" fill="none" xmlns="http://www.w3.org/2000/svg">
  <path fill-rule="evenodd" clip-rule="evenodd" d="M1.78825 2.82653C1.91318 2.5861 2.1645 2.42188 2.45418 2.42188H12.9542C13.2439 2.42188 13.4952 2.5861 13.6201 2.82653L7.70418 6.77049L1.78825 2.82653ZM0.204226 3.1575C0.204077 3.16571 0.204062 3.17393 0.204181 3.18213V10.6719C0.204181 11.9145 1.21154 12.9219 2.45418 12.9219H12.9542C14.1968 12.9219 15.2042 11.9145 15.2042 10.6719V3.18215M13.7042 4.57326V10.6719C13.7042 11.0861 13.3684 11.4219 12.9542 11.4219H2.45418C2.03997 11.4219 1.70418 11.0861 1.70418 10.6719V4.57326L7.28816 8.29591C7.54008 8.46386 7.86828 8.46386 8.12021 8.29591L13.7042 4.57326ZM15.2041 3.15748C15.1964 1.92146 14.192 0.921875 12.9542 0.921875H2.45418C1.21634 0.921875 0.21196 1.92147 0.204226 3.1575" fill="white" />
</svg>