<svg width="24" height="24" fill="none" xmlns="http://www.w3.org/2000/svg">
  <path fill-rule="evenodd" clip-rule="evenodd" d="M20.401 3.466a.75.75 0 0 1 .009 1.06L5.222 19.955a.75.75 0 0 1-1.069-1.053l.895-.909a10.297 10.297 0 0 1-1.788-2.265 7.383 7.383 0 0 1 0-7.456c3.136-5.357 9.927-6.424 14.525-3.218l1.555-1.58a.75.75 0 0 1 1.061-.008ZM16.715 6.14c-3.915-2.557-9.54-1.588-12.16 2.89a5.883 5.883 0 0 0 0 5.939c.44.752.963 1.403 1.546 1.954l2.351-2.39a4.386 4.386 0 0 1-.759-2.473c0-2.4 1.917-4.364 4.306-4.364.904 0 1.742.282 2.434.763l2.282-2.319Zm-3.359 3.412A2.75 2.75 0 0 0 12 9.197c-1.538 0-2.806 1.27-2.806 2.864 0 .498.125.966.343 1.373l3.82-3.881Zm6.358-1.549a.75.75 0 0 1 1.026.268 7.383 7.383 0 0 1 0 7.455c-2.613 4.464-7.766 5.948-12.064 4.469a.75.75 0 1 1 .489-1.418c3.675 1.265 8.057-.01 10.28-3.808a5.883 5.883 0 0 0 0-5.94.75.75 0 0 1 .269-1.026Zm-4.157 3.307a.75.75 0 0 1 .75.75c0 2.399-1.918 4.362-4.308 4.362a.75.75 0 0 1 0-1.5c1.54 0 2.808-1.27 2.808-2.862a.75.75 0 0 1 .75-.75Z" fill="#141519"/>
</svg>
