<svg width="24" height="24" fill="none" xmlns="http://www.w3.org/2000/svg">
  <g clip-path="url(#a)" fill-rule="evenodd" clip-rule="evenodd" fill="#141519">
    <path d="M12 9.57A2.425 2.425 0 0 0 9.57 12 2.425 2.425 0 0 0 12 14.43 2.425 2.425 0 0 0 14.43 12 2.425 2.425 0 0 0 12 9.57ZM8.07 12A3.925 3.925 0 0 1 12 8.07 3.925 3.925 0 0 1 15.93 12 3.925 3.925 0 0 1 12 15.93 3.925 3.925 0 0 1 8.07 12Z"/>
    <path d="M2.667 10.31C4.793 6.267 8.189 3.75 12 3.75c3.81 0 7.207 2.517 9.333 6.56a3.636 3.636 0 0 1 0 3.38c-2.126 4.043-5.522 6.56-9.333 6.56-3.81 0-7.207-2.517-9.333-6.56a3.636 3.636 0 0 1 0-3.38ZM12 5.25c-3.089 0-6.052 2.043-8.006 5.759l-.001.002a2.136 2.136 0 0 0 0 1.978v.002C5.949 16.707 8.912 18.75 12 18.75c3.089 0 6.052-2.043 8.006-5.759l.001-.002a2.136 2.136 0 0 0 0-1.978v-.002C18.051 7.293 15.088 5.25 12 5.25Z"/>
  </g>
  <defs>
    <clipPath id="a">
      <path fill="#fff" d="M0 0h24v24H0z"/>
    </clipPath>
  </defs>
</svg>
