<svg width="20" height="20" viewBox="0 0 20 20" fill="none" xmlns="http://www.w3.org/2000/svg">
<g clip-path="url(#clip0_429_33659)">
<path fill-rule="evenodd" clip-rule="evenodd" d="M6.66666 3.95834C4.71184 3.95834 3.125 5.54519 3.125 7.50001C3.125 9.87656 4.33809 11.8331 5.86866 13.312C7.30621 14.701 8.97146 15.6151 10 16.003C11.0289 15.6152 12.6941 14.7028 14.1315 13.315C15.6617 11.8374 16.875 9.88089 16.875 7.50001C16.875 5.53767 15.289 3.95834 13.3333 3.95834C12.1778 3.95834 11.1447 4.51068 10.501 5.37369C10.3833 5.5315 10.1981 5.62462 10.0012 5.62501C9.80436 5.6254 9.61882 5.53301 9.50049 5.37567C8.85448 4.51669 7.82753 3.95834 6.66666 3.95834ZM1.875 7.50001C1.875 4.85483 4.02149 2.70834 6.66666 2.70834C7.96507 2.70834 9.13889 3.22537 9.99876 4.05735C10.8624 3.2192 12.0429 2.70834 13.3333 2.70834C15.9777 2.70834 18.125 4.84568 18.125 7.50001C18.125 10.3358 16.6757 12.5959 14.9997 14.2142C13.328 15.8284 11.3723 16.8635 10.1997 17.2589C10.0701 17.3026 9.92985 17.3026 9.80031 17.2589C8.62729 16.8634 6.67158 15.8259 5.00009 14.2109C3.3244 12.5919 1.875 10.3318 1.875 7.50001Z" fill="#141519"/>
</g>
<defs>
<clipPath id="clip0_429_33659">
<rect width="20" height="20" fill="white"/>
</clipPath>
</defs>
</svg>
