<svg width="14" height="14" viewBox="0 0 14 14" fill="none" xmlns="http://www.w3.org/2000/svg">
  <path fill-rule="evenodd" clip-rule="evenodd" d="M3.74316 1.71094C2.50052 1.71094 1.49316 2.7183 1.49316 3.96094V9.96094C1.49316 11.2036 2.50052 12.2109 3.74316 12.2109H9.74317C10.9858 12.2109 11.9932 11.2036 11.9932 9.96094V3.96094C11.9932 2.7183 10.9858 1.71094 9.74317 1.71094H3.74316ZM-0.00683594 3.96094C-0.00683594 1.88987 1.6721 0.210938 3.74316 0.210938H9.74317C11.8142 0.210938 13.4932 1.88987 13.4932 3.96094V9.96094C13.4932 12.032 11.8142 13.7109 9.74317 13.7109H3.74316C1.6721 13.7109 -0.00683594 12.032 -0.00683594 9.96094V3.96094ZM6.74316 5.46094C5.91474 5.46094 5.24316 6.13251 5.24316 6.96094C5.24316 7.78937 5.91474 8.46094 6.74316 8.46094C7.57159 8.46094 8.24316 7.78937 8.24316 6.96094C8.24316 6.13251 7.57159 5.46094 6.74316 5.46094ZM3.74316 6.96094C3.74316 5.30408 5.08631 3.96094 6.74316 3.96094C8.40002 3.96094 9.74316 5.30408 9.74316 6.96094C9.74316 8.61779 8.40002 9.96094 6.74316 9.96094C5.08631 9.96094 3.74316 8.61779 3.74316 6.96094ZM10.8682 3.58594C10.8682 3.17172 10.5324 2.83594 10.1182 2.83594C9.70395 2.83594 9.36816 3.17172 9.36816 3.58594V3.58669C9.36816 4.0009 9.70395 4.33669 10.1182 4.33669C10.5324 4.33669 10.8682 4.0009 10.8682 3.58669V3.58594Z" fill="white" />
</svg>