<svg width="24" height="24" fill="none" xmlns="http://www.w3.org/2000/svg">
  <path fill-rule="evenodd" clip-rule="evenodd" d="M12 3.75c-3.989 0-7.25 3.31-7.25 7.425 0 2.076.83 4.375 2.189 6.15C8.3 19.105 10.104 20.25 12 20.25s3.7-1.145 5.061-2.925c1.359-1.775 2.189-4.074 2.189-6.15 0-4.116-3.261-7.425-7.25-7.425Zm-8.75 7.425C3.25 6.261 7.152 2.25 12 2.25s8.75 4.011 8.75 8.925c0 2.44-.96 5.053-2.497 7.062C16.719 20.24 14.522 21.75 12 21.75c-2.522 0-4.72-1.51-6.252-3.513-1.537-2.008-2.498-4.622-2.498-7.061Z" fill="#fff"/>
  <path fill-rule="evenodd" clip-rule="evenodd" d="M8.75 10.5a3.25 3.25 0 1 1 6.5 0 3.25 3.25 0 0 1-6.5 0ZM12 8.75a1.75 1.75 0 1 0 0 3.5 1.75 1.75 0 0 0 0-3.5Z" fill="#fff"/>
</svg>
