<svg width="24" height="24" fill="none" xmlns="http://www.w3.org/2000/svg">
  <g clip-path="url(#a)" fill-rule="evenodd" clip-rule="evenodd" fill="#fff">
    <path d="m13.883 16.31.273.21.019.016a21.17 21.17 0 0 0 5.244 3.38.75.75 0 0 1-.618 1.367 22.67 22.67 0 0 1-5.597-3.603l-.247-.19-.006-.004c-1.035-.828-1.95-1.553-2.826-2.06-.859-.499-1.602-.74-2.3-.7a8.21 8.21 0 0 0-4.307 2.167.75.75 0 1 1-1.036-1.086A9.708 9.708 0 0 1 7.62 13.24l.034-.006.034-.002c1.133-.08 2.195.319 3.19.895.99.574 1.993 1.372 3.006 2.183Z"/>
    <path d="M17.514 15.716c.355-.014.757.105 1.255.384.521.293 1.074.718 1.714 1.227a.75.75 0 0 0 .934-1.174c-.63-.5-1.272-1-1.914-1.36-.645-.363-1.36-.626-2.136-.571l-.045.003-.044.008a7.487 7.487 0 0 0-4.168 2.368.75.75 0 0 0 1.12.998 5.987 5.987 0 0 1 3.284-1.883ZM12.22 8.55a2.756 2.756 0 0 1 2.75-2.75 2.75 2.75 0 1 1-2.75 2.75Zm2.75-1.25c-.686 0-1.25.564-1.25 1.25s.564 1.25 1.25 1.25a1.25 1.25 0 1 0 0-2.5Z"/>
    <path d="M2.25 6.23a3.985 3.985 0 0 1 3.98-3.98h11.54a3.985 3.985 0 0 1 3.98 3.98v11.54a3.985 3.985 0 0 1-3.98 3.98H6.23a3.985 3.985 0 0 1-3.98-3.98V6.23Zm3.98-2.48a2.485 2.485 0 0 0-2.48 2.48v11.54a2.485 2.485 0 0 0 2.48 2.48h11.54a2.485 2.485 0 0 0 2.48-2.48V6.23a2.485 2.485 0 0 0-2.48-2.48H6.23Z"/>
  </g>
  <defs>
    <clipPath id="a">
      <path fill="#fff" d="M0 0h24v24H0z"/>
    </clipPath>
  </defs>
</svg>
