<svg width="24" height="24" viewBox="0 0 24 24" fill="none" xmlns="http://www.w3.org/2000/svg">
<g clip-path="url(#clip0_63_2172)">
<path fill-rule="evenodd" clip-rule="evenodd" d="M3.9496 6.00246C4.03872 5.5967 4.39819 5.30762 4.81362 5.30762H17.7055V6.19224L18.5882 6.24978L17.5503 22.173C17.5347 22.4129 17.422 22.6361 17.2384 22.7912C17.0547 22.9463 16.8158 23.02 16.5767 22.9954L2.74617 21.5675C1.60622 21.4408 0.788214 20.3688 1.04857 19.2104L3.9496 6.00246ZM16.7613 7.07686H5.52503L2.77609 19.5923L2.77485 19.5979C2.76262 19.6519 2.77438 19.6958 2.80069 19.7319C2.82781 19.7691 2.87339 19.8008 2.93936 19.8088L15.8446 21.1411L16.7613 7.07686Z" fill="#777575"/>
<path fill-rule="evenodd" clip-rule="evenodd" d="M17.7055 5.30762H4.81362C4.39818 5.30762 4.03872 5.5967 3.9496 6.00246L1.04857 19.2104C0.788214 20.3688 1.60622 21.4408 2.74617 21.5675L16.5767 22.9954C16.8158 23.02 17.0547 22.9463 17.2384 22.7912C17.422 22.6361 17.5347 22.4129 17.5503 22.173L18.5882 6.24978L17.7055 6.19222V5.30762ZM18.3757 6.43635L17.6925 6.39181C17.5873 6.38496 17.5055 6.29764 17.5055 6.19224V5.50762H4.81362C4.49211 5.50762 4.21391 5.73134 4.14494 6.04537L1.24391 19.2533C1.01092 20.29 1.74104 21.2541 2.76749 21.3686C2.76724 21.3686 2.76775 21.3686 2.76749 21.3686L16.5972 22.7964C16.7823 22.8155 16.9672 22.7585 17.1093 22.6384C17.2515 22.5184 17.3386 22.3456 17.3507 22.1599L18.3757 6.43635ZM5.32968 7.03395C5.34983 6.94222 5.4311 6.87686 5.52503 6.87686H16.7613C16.8166 6.87686 16.8695 6.89976 16.9073 6.94011C16.9451 6.98047 16.9645 7.03468 16.9609 7.08987L16.0441 21.1541C16.0406 21.2084 16.0151 21.2588 15.9736 21.2939C15.9321 21.329 15.8781 21.3456 15.824 21.3401L2.91554 20.0074C2.79364 19.9927 2.69849 19.9312 2.63912 19.8498L2.80069 19.7319C2.82781 19.7691 2.87339 19.8008 2.93936 19.8088L15.8446 21.1411L16.7613 7.07686H5.52503L2.77609 19.5923L2.77485 19.5979C2.76262 19.6519 2.77438 19.6958 2.80069 19.7319L2.63912 19.8498C2.57963 19.7682 2.55457 19.6656 2.5797 19.5541M2.5797 19.5541L2.58075 19.5494L5.32968 7.03395" fill="#777575"/>
<path fill-rule="evenodd" clip-rule="evenodd" d="M17.1957 5.46117C17.4208 5.30784 17.7039 5.26671 17.9633 5.34967L21.1715 6.37584C21.5088 6.4837 21.7492 6.78225 21.7827 7.13472L22.7974 17.8127C22.8625 18.529 22.5327 19.1961 21.9655 19.5953L21.9517 19.6048L17.1511 22.8484C16.8714 23.0374 16.5085 23.0507 16.2157 22.8827C15.9228 22.7148 15.7512 22.3947 15.7731 22.0579L16.8111 6.1347C16.8288 5.86295 16.9707 5.6145 17.1957 5.46117ZM18.5029 7.3798L17.656 20.372L20.9518 18.1451C21.0177 18.0968 21.0407 18.0345 21.0355 17.974C21.0355 17.9736 21.0356 17.9744 21.0355 17.974L20.0766 7.88316L18.5029 7.3798Z" fill="#777575"/>
<path fill-rule="evenodd" clip-rule="evenodd" d="M17.5067 20.6323C17.4074 20.5753 17.3491 20.4668 17.3566 20.3525L18.2035 7.36032C18.2095 7.26816 18.2576 7.18391 18.334 7.13191C18.4103 7.07991 18.5063 7.06596 18.5943 7.0941L20.168 7.59745C20.2823 7.63403 20.3639 7.73528 20.3752 7.85481L21.3341 17.9456C21.3342 17.946 21.3342 17.9464 21.3342 17.9468L21.3344 17.9482C21.3343 17.948 21.3344 17.9484 21.3344 17.9482C21.3483 18.1138 21.2784 18.2776 21.1293 18.387L21.1198 18.3939L17.8239 20.6206C17.7291 20.6847 17.606 20.6892 17.5067 20.6323ZM21.0355 17.974L21.3344 17.9482C21.3344 17.9489 21.3345 17.9504 21.3346 17.9512L21.3347 17.9531C21.3347 17.953 21.3347 17.9532 21.3347 17.9531C21.3459 18.1148 21.2262 18.2573 21.0638 18.2727C21.0579 18.2732 21.0521 18.2736 21.0462 18.2738C21.0437 18.2739 21.0413 18.274 21.0388 18.274C20.9695 18.2749 20.9047 18.2518 20.8528 18.212L17.9704 20.1596L17.9553 20.3916L17.656 20.3721L17.488 20.1235L17.6806 19.9933L18.5029 7.37984L20.0766 7.88319L21.0355 17.974ZM20.9518 18.1452C21.0176 18.0968 21.0406 18.0345 21.0355 17.974L20.9518 18.1452Z" fill="#777575"/>
<path fill-rule="evenodd" clip-rule="evenodd" d="M11.7704 1.78745C10.1737 1.61208 8.80184 2.70051 8.62876 4.12844L8.19234 7.72598C8.1335 8.21098 7.69263 8.55646 7.20762 8.49762C6.72261 8.43879 6.37713 7.99791 6.43597 7.51291L6.87238 3.91554C6.87237 3.91557 6.87238 3.91551 6.87238 3.91554C7.17114 1.45118 9.47929 -0.24406 11.9636 0.0287812C14.4537 0.302265 16.3119 2.46817 16.0125 4.94167C16.0124 4.94188 16.0125 4.94147 16.0125 4.94167L15.6469 7.99586C15.5888 8.48096 15.1485 8.82714 14.6634 8.76908C14.1783 8.71102 13.8321 8.2707 13.8902 7.7856L14.256 4.72939C14.428 3.31081 13.3611 1.96215 11.7704 1.78745Z" fill="#777575"/>
</g>
<defs>
<clipPath id="clip0_63_2172">
<rect width="24" height="24" fill="white"/>
</clipPath>
</defs>
</svg>
