<svg width="24" height="24" viewBox="0 0 24 24" fill="none" xmlns="http://www.w3.org/2000/svg">
<g clip-path="url(#clip0_63_2076)">
<path fill-rule="evenodd" clip-rule="evenodd" d="M14.8084 5.69195C15.2205 6.51518 15.44 7.43478 15.44 8.40004C15.44 9.36531 15.2205 10.2849 14.8084 11.1081C15.31 11.4403 15.9061 11.63 16.55 11.63C18.3108 11.63 19.75 10.1908 19.75 8.40004C19.75 6.60932 18.3108 5.17004 16.55 5.17004C15.9061 5.17004 15.31 5.35978 14.8084 5.69195ZM13.3212 4.96839C14.1653 4.15999 15.2991 3.67004 16.55 3.67004C19.1491 3.67004 21.25 5.79076 21.25 8.40004C21.25 11.0093 19.1491 13.13 16.55 13.13C15.2991 13.13 14.1653 12.6401 13.3212 11.8317C13.0603 11.5818 13.0146 11.1814 13.2125 10.8792C13.6816 10.1628 13.94 9.31588 13.94 8.40004C13.94 7.4842 13.6816 6.63729 13.2125 5.92088C13.0146 5.61864 13.0603 5.21827 13.3212 4.96839Z" fill="#777575"/>
<path fill-rule="evenodd" clip-rule="evenodd" d="M14.4573 21.3366C12.11 17.4333 6.4668 17.4508 4.14581 21.3814C3.93519 21.7381 3.47532 21.8565 3.11865 21.6459C2.76197 21.4353 2.64357 20.9754 2.85419 20.6187C5.75319 15.7093 12.81 15.6868 15.7427 20.5635L15.7431 20.5642L15.7731 20.6142C15.9862 20.9694 15.8711 21.4301 15.5159 21.6432C15.1607 21.8563 14.7 21.7411 14.4869 21.3859L14.4573 21.3366Z" fill="#777575"/>
<path fill-rule="evenodd" clip-rule="evenodd" d="M18.2003 15.2897C18.4932 15.5826 18.4932 16.0575 18.2003 16.3504L17.7247 16.826C18.7455 17.5254 19.5129 18.614 19.8808 19.8927C19.9953 20.2908 19.7654 20.7063 19.3673 20.8208C18.9693 20.9354 18.5537 20.7055 18.4392 20.3074C18.0763 19.046 17.2256 18.1047 16.2082 17.7091C15.972 17.6172 15.7982 17.4124 15.746 17.1644C15.6939 16.9164 15.7705 16.6589 15.9497 16.4797L17.1397 15.2897C17.4326 14.9968 17.9074 14.9968 18.2003 15.2897Z" fill="#777575"/>
<path fill-rule="evenodd" clip-rule="evenodd" d="M9.5 4.25C7.15279 4.25 5.25 6.15279 5.25 8.5C5.25 10.8472 7.15279 12.75 9.5 12.75C11.8472 12.75 13.75 10.8472 13.75 8.5C13.75 6.15279 11.8472 4.25 9.5 4.25ZM3.75 8.5C3.75 5.32436 6.32436 2.75 9.5 2.75C12.6756 2.75 15.25 5.32436 15.25 8.5C15.25 11.6756 12.6756 14.25 9.5 14.25C6.32436 14.25 3.75 11.6756 3.75 8.5Z" fill="#777575"/>
</g>
<defs>
<clipPath id="clip0_63_2076">
<rect width="24" height="24" fill="white"/>
</clipPath>
</defs>
</svg>
