<svg width="20" height="20" viewBox="0 0 20 20" fill="none" xmlns="http://www.w3.org/2000/svg">
<path opacity="0.5" d="M3.49514 9.03638C3.84784 7.15019 4.02419 6.20709 4.6937 5.64993C5.36322 5.09277 6.32014 5.09277 8.23399 5.09277H11.4811C13.395 5.09277 14.3519 5.09277 15.0214 5.64993C15.6909 6.20709 15.8673 7.15019 16.22 9.03638L16.8227 12.2594C17.3186 14.9117 17.5666 16.2379 16.8436 17.1114C16.1206 17.9849 14.775 17.9849 12.0838 17.9849H7.63131C4.9401 17.9849 3.5945 17.9849 2.87151 17.1114C2.14852 16.2379 2.3965 14.9117 2.89246 12.2594L3.49514 9.03638Z" fill="white"/>
<path d="M8.04911 4.28625C8.04911 3.28498 8.85859 2.47329 9.85714 2.47329C10.8557 2.47329 11.6652 3.28498 11.6652 4.28625V5.09201C11.6652 5.092 11.6652 5.09201 11.6652 5.09201C12.12 5.09215 12.5185 5.09341 12.8704 5.104C12.8705 5.10001 12.8705 5.09601 12.8705 5.09201V4.28625C12.8705 2.61746 11.5214 1.26465 9.85714 1.26465C8.19289 1.26465 6.84375 2.61746 6.84375 4.28625V5.09201C6.84375 5.09602 6.84379 5.10002 6.84387 5.10402C7.19583 5.09342 7.59427 5.09217 8.04911 5.09203C8.04911 5.09202 8.04911 5.09203 8.04911 5.09203V4.28625Z" fill="white"/>
</svg>
