<svg width="24" height="24" viewBox="0 0 24 24" fill="none" xmlns="http://www.w3.org/2000/svg">
<path d="M7.95997 18.378C5.25217 16.2861 2.07178 13.829 2.07178 9.56968C2.07178 4.86765 7.37551 1.53306 11.7146 6.05354L13.6432 7.98605C13.9257 8.2692 14.3836 8.26912 14.666 7.98587C14.9484 7.70261 14.9483 7.24345 14.6658 6.9603L12.8028 5.0929C16.8914 2.09157 21.3575 5.25488 21.3575 9.56968C21.3575 13.829 18.1771 16.286 15.4693 18.378C15.1879 18.5954 14.9115 18.8089 14.6444 19.0201C13.6432 19.8115 12.6789 20.5566 11.7146 20.5566C10.7504 20.5566 9.78607 19.8115 8.78488 19.0201C8.51775 18.8089 8.24141 18.5954 7.95997 18.378Z" fill="#333333"/>
</svg>
