<svg width="36" height="36" viewBox="0 0 24 24" fill="none" xmlns="http://www.w3.org/2000/svg">
<path fill-rule="evenodd" clip-rule="evenodd" d="M4.62436 2.09578C2.96537 2.7978 1.75 4.46758 1.75 6.45874C1.75 8.49298 2.64922 10.0609 3.93829 11.4047C5.00072 12.5122 6.28684 13.4301 7.54113 14.3253C7.83904 14.5379 8.13515 14.7492 8.42605 14.9615C8.95208 15.3454 9.42132 15.6824 9.87361 15.927C10.3261 16.1718 10.6904 16.2836 11 16.2836C11.3096 16.2836 11.6739 16.1718 12.1264 15.927C12.5787 15.6824 13.0479 15.3454 13.574 14.9615C13.8649 14.7492 14.161 14.5379 14.4589 14.3253C15.7132 13.4301 16.9993 12.5122 18.0617 11.4047C19.3508 10.0609 20.25 8.49298 20.25 6.45874C20.25 4.46758 19.0346 2.7978 17.3756 2.09578C15.7639 1.41377 13.5983 1.59438 11.5404 3.57378C11.399 3.70976 11.2039 3.7866 11 3.7866C10.7961 3.7866 10.601 3.70976 10.4596 3.57378C8.40166 1.59438 6.23607 1.41377 4.62436 2.09578ZM11 2.12783C8.68795 0.212859 6.09896 -0.0550264 4.00076 0.83285C1.78471 1.7706 0.25 3.94805 0.25 6.45874C0.25 8.92635 1.3605 10.8088 2.81672 12.3268C3.98287 13.5424 5.41022 14.5598 6.67083 15.4584C6.95659 15.6621 7.23378 15.8596 7.49742 16.052C8.00965 16.4259 8.55954 16.8245 9.11682 17.126C9.67386 17.4273 10.3096 17.6722 11 17.6722C11.6904 17.6722 12.3261 17.4273 12.8832 17.126C13.4405 16.8245 13.9903 16.4259 14.5026 16.052C14.7662 15.8596 15.0434 15.6621 15.3292 15.4584C16.5898 14.5598 18.0171 13.5424 19.1833 12.3268C20.6395 10.8088 21.75 8.92635 21.75 6.45874C21.75 3.94805 20.2153 1.7706 17.9992 0.83285C15.901 -0.0550264 13.3121 0.212859 11 2.12783Z" fill="#6D6B6B" fill-opacity="0.5"/>
</svg>
