<svg width="19" height="19" viewBox="0 0 19 19" fill="none" xmlns="http://www.w3.org/2000/svg">
<path fill-rule="evenodd" clip-rule="evenodd" d="M4.94918 3.45538C3.68801 4.03249 2.76409 5.40516 2.76409 7.04204C2.76409 8.71432 3.44767 10.0033 4.42763 11.108C5.2353 12.0184 6.21301 12.773 7.16652 13.5089C7.39299 13.6837 7.6181 13.8574 7.83924 14.0319C8.23913 14.3475 8.59585 14.6245 8.93969 14.8256C9.2837 15.0269 9.56061 15.1188 9.79597 15.1188C10.0313 15.1188 10.3082 15.0269 10.6523 14.8256C10.9961 14.6245 11.3528 14.3475 11.7527 14.0319C11.9738 13.8574 12.199 13.6837 12.4254 13.5089C13.3789 12.773 14.3566 12.0184 15.1643 11.108C16.1443 10.0033 16.8279 8.71432 16.8279 7.04204C16.8279 5.40516 15.9039 4.03249 14.6428 3.45538C13.4175 2.89472 11.7712 3.04319 10.2068 4.67039C10.0993 4.78218 9.95097 4.84535 9.79597 4.84535C9.64098 4.84535 9.49267 4.78218 9.38518 4.67039C7.82071 3.04319 6.17441 2.89472 4.94918 3.45538ZM9.79597 3.48173C8.03834 1.90748 6.07018 1.68726 4.47512 2.41716C2.79047 3.18805 1.62378 4.97807 1.62378 7.04204C1.62378 9.07059 2.46798 10.6181 3.57501 11.866C4.46152 12.8653 5.5466 13.7017 6.50492 14.4404C6.72215 14.6078 6.93288 14.7702 7.1333 14.9284C7.5227 15.2357 7.94073 15.5634 8.36437 15.8112C8.78783 16.059 9.27113 16.2603 9.79597 16.2603C10.3208 16.2603 10.8041 16.059 11.2276 15.8112C11.6512 15.5634 12.0692 15.2357 12.4586 14.9284C12.6591 14.7702 12.8698 14.6078 13.087 14.4404C14.0453 13.7017 15.1304 12.8653 16.0169 11.866C17.124 10.6181 17.9682 9.07059 17.9682 7.04204C17.9682 4.97807 16.8015 3.18805 15.1168 2.41716C13.5218 1.68726 11.5536 1.90748 9.79597 3.48173Z" fill="#6D6B6B" fill-opacity="0.5"/>
</svg>
