<svg width="16" height="17" fill="none" xmlns="http://www.w3.org/2000/svg">
  <path fill-rule="evenodd" clip-rule="evenodd" d="M8.342 2.58a2.036 2.036 0 0 0-.684 0l-.079.014-.083-.491.083.491c-.7.12-1.235.629-1.374 1.264a2.166 2.166 0 0 0-.033.745 13.687 13.687 0 0 1 3.656 0 2.166 2.166 0 0 0-.033-.745c-.14-.635-.674-1.144-1.374-1.264l-.079-.013Zm2.472 2.194c.053-.374.04-.757-.042-1.13-.232-1.055-1.104-1.852-2.183-2.036l-.078-.013a3.036 3.036 0 0 0-1.021 0l-.079.013c-1.078.184-1.951.98-2.183 2.035a3.165 3.165 0 0 0-.041 1.131c-1.33.307-2.395 1.294-2.748 2.59l-.05.187.48.13-.48-.13a6.314 6.314 0 0 0 .25 4.054l.062.152c.567 1.386 1.851 2.37 3.365 2.606l.5.078c.95.148 1.918.148 2.869 0l.499-.078c1.514-.235 2.798-1.22 3.365-2.606l.062-.152a6.313 6.313 0 0 0 .25-4.054l-.05-.188c-.352-1.295-1.417-2.282-2.747-2.589ZM9.5 5.57a.5.5 0 0 0 .933.357l.085-.194c1.024.21 1.82.95 2.077 1.892l.05.188a5.314 5.314 0 0 1-.21 3.414l-.063.151c-.428 1.047-1.409 1.813-2.593 1.997l-.5.078a8.334 8.334 0 0 1-2.56 0l-.5-.078c-1.184-.184-2.165-.95-2.593-1.997l-.062-.151a5.314 5.314 0 0 1-.212-3.414l.051-.188c.257-.943 1.054-1.682 2.077-1.892l.085.194a.5.5 0 0 0 .933-.357 12.688 12.688 0 0 1 3.002 0Z" fill="#141519"/>
</svg>
