<svg width="16" height="16" fill="none" xmlns="http://www.w3.org/2000/svg">
  <path fill-rule="evenodd" clip-rule="evenodd" d="M8 .833a3.167 3.167 0 1 0 0 6.333A3.167 3.167 0 0 0 8 .833ZM5.833 4a2.167 2.167 0 1 1 4.334 0 2.167 2.167 0 0 1-4.334 0ZM8 8.166c-1.36 0-2.615.314-3.548.847-.919.525-1.619 1.327-1.619 2.32 0 .993.7 1.795 1.619 2.32.933.533 2.188.847 3.548.847 1.36 0 2.615-.314 3.548-.847.919-.525 1.619-1.327 1.619-2.32 0-.993-.7-1.795-1.62-2.32C10.616 8.48 9.36 8.166 8 8.166Zm-4.167 3.167c0-.48.345-1.011 1.115-1.451.756-.433 1.834-.716 3.052-.716s2.296.283 3.052.716c.77.44 1.115.972 1.115 1.451 0 .48-.345 1.011-1.115 1.451-.756.433-1.834.716-3.052.716s-2.296-.283-3.052-.716c-.77-.44-1.115-.972-1.115-1.451Z" fill="#333"/>
</svg>
