<svg width="16" height="17" fill="none" xmlns="http://www.w3.org/2000/svg">
  <g clip-path="url(#a)">
    <path fill="#EDEAE9" d="M0 .154h16v16H0z"/>
    <path fill-rule="evenodd" clip-rule="evenodd" d="M5.887 8.135c0-1.17.95-2.12 2.12-2.12 1.17 0 2.12.95 2.12 2.12 0 1.17-.95 2.12-2.12 2.12-1.17 0-2.12-.95-2.12-2.12Zm2.12-1.12c-.617 0-1.12.502-1.12 1.12 0 .617.503 1.12 1.12 1.12.617 0 1.12-.503 1.12-1.12 0-.618-.503-1.12-1.12-1.12Z" fill="#141519"/>
    <path fill-rule="evenodd" clip-rule="evenodd" d="M7.987 2.661a.95.95 0 0 0-.584.2.987.987 0 0 0-.345.524l-.002.006-.001.006A2.248 2.248 0 0 1 6.043 4.71l-.006.003a2.215 2.215 0 0 1-1.638.232l-.011-.003-.01-.003a.923.923 0 0 0-.62.037.966.966 0 0 0-.475.421 1.026 1.026 0 0 0-.115.64.97.97 0 0 0 .289.566l.009.009.008.009a2.24 2.24 0 0 1 0 3.092l-.006.006-.006.006a1.009 1.009 0 0 0-.294.572v.005l-.001.005a.983.983 0 0 0 .59 1.051l.004.002a.92.92 0 0 0 .616.034l.012-.003.012-.003a2.21 2.21 0 0 1 1.636.233l.006.003c.484.29.856.752 1.012 1.316.057.207.18.387.346.514.178.132.38.2.586.2a.966.966 0 0 0 .931-.714 2.227 2.227 0 0 1 1.013-1.316l.003-.002a2.188 2.188 0 0 1 1.64-.234l.01.003.01.003a.94.94 0 0 0 .629-.03c.2-.082.37-.232.483-.426.11-.192.15-.411.12-.636a1.017 1.017 0 0 0-.296-.572l-.009-.008-.009-.01a2.24 2.24 0 0 1 0-3.091l.009-.01.01-.008a.96.96 0 0 0 .294-.566.998.998 0 0 0-.602-1.068.94.94 0 0 0-.627-.03l-.01.003-.011.003a2.153 2.153 0 0 1-1.631-.242 2.233 2.233 0 0 1-.805-.829l-.09.03-.133-.52a.987.987 0 0 0-.346-.525.95.95 0 0 0-.583-.199Zm1.694-.02a1.95 1.95 0 0 0-2.897-.565A1.987 1.987 0 0 0 6.09 3.13a1.248 1.248 0 0 1-.558.719c-.265.153-.587.2-.883.128a1.923 1.923 0 0 0-1.274.074c-.412.17-.751.474-.966.859a2.026 2.026 0 0 0-.232 1.268c.062.428.262.836.582 1.142a1.24 1.24 0 0 1-.002 1.695 2.009 2.009 0 0 0-.348 2.409c.214.384.553.687.964.857a1.92 1.92 0 0 0 1.275.076 1.21 1.21 0 0 1 .884.128c.274.164.475.42.558.722.116.419.366.785.706 1.044l.005.004c.34.253.751.399 1.185.399a1.966 1.966 0 0 0 1.895-1.447c.084-.302.285-.559.56-.723.268-.157.583-.2.882-.127.42.12.867.103 1.28-.068a2.01 2.01 0 0 0 .968-.85l.003-.005c.223-.393.302-.838.24-1.277v-.005l-.002-.006a2.02 2.02 0 0 0-.586-1.133 1.24 1.24 0 0 1 0-1.693 1.997 1.997 0 0 0-.623-3.276 1.94 1.94 0 0 0-1.281-.067 1.153 1.153 0 0 1-.867-.133c-.27-.16-.47-.422-.555-.726l-.142-.505-.078.027Z" fill="#141519"/>
  </g>
  <defs>
    <clipPath id="a">
      <path fill="#fff" transform="translate(0 .154)" d="M0 0h16v16H0z"/>
    </clipPath>
  </defs>
</svg>
