<svg width="16" height="17" fill="none" xmlns="http://www.w3.org/2000/svg">
  <g clip-path="url(#a)" fill-rule="evenodd" clip-rule="evenodd" fill="#141519">
    <path d="M7.067 2.785c-2.274.379-4.114 2.225-4.487 4.5a5.552 5.552 0 0 0 .458 3.291l.006.012c.062.141.106.31.128.472.02.153.028.35-.021.536l-.412 1.7v.002c-.028.114-.014.165-.006.18.016.008.067.023.18-.005l.005-.001c.35-.083.726-.174 1.065-.257l.648-.156c.174-.042.361-.04.518-.02.16.02.335.062.486.135a5.547 5.547 0 0 0 3.451.427h.001c2.271-.428 3.96-2.175 4.34-4.458a5.517 5.517 0 0 0-6.36-6.358Zm7.34 6.563a.462.462 0 0 0 .006-.035c.73-4.446-3.064-8.229-7.506-7.515h-.002c-2.699.449-4.87 2.628-5.312 5.326v.002A6.552 6.552 0 0 0 2.132 11a.816.816 0 0 1 .056.3c0 .025-.003.037-.003.04a.537.537 0 0 0-.004.015l-.413 1.704v.002c-.098.395-.045.825.257 1.127.301.301.73.354 1.125.257.345-.081.737-.176 1.083-.26.242-.06.462-.113.63-.153a.54.54 0 0 1 .164 0 .63.63 0 0 1 .176.044l.003.002c1.206.57 2.6.786 4.067.506 2.675-.504 4.672-2.565 5.133-5.235Zm-11.68 4.128.002.001a.012.012 0 0 1-.002-.001Zm.007.007a.007.007 0 0 1 .002.002l-.002-.002Z"/>
    <path d="M5.7 8.205a.5.5 0 0 1 .5-.5h3.6a.5.5 0 0 1 0 1H6.2a.5.5 0 0 1-.5-.5Z"/>
  </g>
  <defs>
    <clipPath id="a">
      <path fill="#fff" transform="translate(0 .205)" d="M0 0h16v16H0z"/>
    </clipPath>
  </defs>
</svg>
