<svg width="16" height="17" fill="none" xmlns="http://www.w3.org/2000/svg">
  <path fill-rule="evenodd" clip-rule="evenodd" d="M3.75 3.052c-1.107.505-1.917 1.708-1.917 3.142 0 1.465.6 2.594 1.46 3.562.707.797 1.565 1.458 2.401 2.103.199.153.396.305.59.458.35.277.663.52.965.695.302.177.545.257.75.257.207 0 .45-.08.752-.257.301-.176.614-.418.965-.695.194-.153.391-.305.59-.458.836-.645 1.693-1.306 2.402-2.103.86-.968 1.459-2.097 1.459-3.562 0-1.434-.81-2.637-1.917-3.142-.982-.449-2.273-.379-3.535.725l.972.972a.5.5 0 1 1-.707.707L7.646 4.123l-.006-.007C6.268 2.691 4.824 2.561 3.75 3.052ZM8 3.075c-1.541-1.379-3.267-1.572-4.666-.933-1.478.676-2.5 2.244-2.5 4.052 0 1.777.74 3.133 1.71 4.226.778.875 1.73 1.608 2.57 2.255.19.147.375.289.55.427.342.27.709.557 1.08.774.372.217.796.393 1.256.393.46 0 .884-.176 1.255-.393.372-.217.738-.504 1.08-.774.176-.138.36-.28.551-.427.84-.647 1.792-1.38 2.57-2.255.97-1.093 1.71-2.45 1.71-4.226 0-1.808-1.023-3.376-2.5-4.052-1.399-.639-3.125-.446-4.666.933Z" fill="#333"/>
</svg>
